{
    "asset" : {
        "generator" : "Khronos glTF Blender I/O v1.8.19",
        "version" : "2.0"
    },
    "scene" : 0,
    "scenes" : [
        {
            "extras" : {
                "jewelcraft" : {
                    "weighting_materials" : {
                        "coll" : [
                            {
                                "name" : "Yellow Gold 24K",
                                "composition" : "Au 99.9%",
                                "density" : 19.32
                            },
                            {
                                "name" : "Yellow Gold 22K",
                                "composition" : "Au 91.6%, Ag 4.9%, Cu 3.5%",
                                "density" : 17.86
                            },
                            {
                                "name" : "Yellow Gold 18K",
                                "composition" : "Au 75.3%, Ag 16.5%, Cu 6.7%, Zn 1.5%",
                                "density" : 15.53
                            },
                            {
                                "name" : "Yellow Gold 14K",
                                "composition" : "Au 58.4%, Ag 9.8%, Cu 28%, Zn 3.8%",
                                "density" : 13.05
                            },
                            {
                                "name" : "Yellow Gold 10K",
                                "composition" : "Au 41.7%, Ag 11.2%, Cu 40.5%, Zn 6.6%",
                                "density" : 11.47
                            },
                            {
                                "name" : "White Gold 18K Pd",
                                "composition" : "Au 78.7%, Cu 8.3%, Pd 13%",
                                "density" : 15.66
                            },
                            {
                                "name" : "White Gold 18K Ni",
                                "composition" : "Au 75.15%, Cu 8.75%, Ni 12%, Zn 4.1%",
                                "density" : 14.69
                            },
                            {
                                "name" : "White Gold 14K Pd",
                                "composition" : "Au 58.55%, Cu 7.2%, Ag 20%, Pd 13.5%, Zn 0.75%",
                                "density" : 14.6
                            },
                            {
                                "name" : "White Gold 14K Ni",
                                "composition" : "Au 58.43%, Cu 21%, Ni 12.73%, Zn 7.84%",
                                "density" : 12.61
                            },
                            {
                                "name" : "White Gold 10K",
                                "composition" : "Au 41.7%, Cu 35.7%, Ni 10.3%, Zn 12.3%",
                                "density" : 10.99
                            },
                            {
                                "name" : "Rose Gold 18K",
                                "composition" : "Au 75.3%, Cu 23.3%, Ag 1.2%, Zn 0.2%",
                                "density" : 15.02
                            },
                            {
                                "name" : "Rose Gold 14K",
                                "composition" : "Au 58.4%, Cu 39.2%, Ag 2%, Zn 0.4%",
                                "density" : 13.03
                            },
                            {
                                "name" : "Rose Gold 10K",
                                "composition" : "Au 41.5%, Cu 55%, Ag 3%, Zn 0.5%",
                                "density" : 11.52
                            },
                            {
                                "name" : "Platinum 950",
                                "composition" : "Pt 95%, Ru 5%",
                                "density" : 20.7
                            },
                            {
                                "name" : "Platinum 900",
                                "composition" : "Pt 90%, Ir 10%",
                                "density" : 21.54
                            },
                            {
                                "name" : "Palladium 950",
                                "composition" : "Pd 95%, Ru 5%",
                                "density" : 12.16
                            },
                            {
                                "name" : "Silver Sterling",
                                "composition" : "Ag 92.5%, Cu 7.5%",
                                "density" : 10.36
                            }
                        ],
                        "index" : 0
                    }
                }
            },
            "name" : "Scene",
            "nodes" : [
                0,
                1,
                2
            ]
        }
    ],
    "nodes" : [
        {
            "mesh" : 0,
            "name" : "01_nazad"
        },
        {
            "mesh" : 1,
            "name" : "default"
        },
        {
            "mesh" : 2,
            "name" : "00_napred"
        }
    ],
    "materials" : [
        {
            "doubleSided" : true,
            "name" : "01_nazad_1",
            "pbrMetallicRoughness" : {
                "baseColorTexture" : {
                    "index" : 0
                },
                "metallicFactor" : 0,
                "roughnessFactor" : 0.5
            }
        },
        {
            "doubleSided" : true,
            "name" : "01_nazad_2",
            "pbrMetallicRoughness" : {
                "baseColorTexture" : {
                    "index" : 1
                },
                "metallicFactor" : 0,
                "roughnessFactor" : 0.5
            }
        },
        {
            "doubleSided" : true,
            "name" : "default",
            "pbrMetallicRoughness" : {
                "baseColorFactor" : [
                    0.800000011920929,
                    0.800000011920929,
                    0.800000011920929,
                    1
                ],
                "metallicFactor" : 0,
                "roughnessFactor" : 0.5
            }
        },
        {
            "doubleSided" : true,
            "name" : "00_napred_1",
            "pbrMetallicRoughness" : {
                "baseColorTexture" : {
                    "index" : 2
                },
                "metallicFactor" : 0,
                "roughnessFactor" : 0.5
            }
        },
        {
            "doubleSided" : true,
            "name" : "00_napred_2",
            "pbrMetallicRoughness" : {
                "baseColorTexture" : {
                    "index" : 3
                },
                "metallicFactor" : 0,
                "roughnessFactor" : 0.5
            }
        }
    ],
    "meshes" : [
        {
            "name" : "01_nazad",
            "primitives" : [
                {
                    "attributes" : {
                        "POSITION" : 0,
                        "NORMAL" : 1,
                        "TEXCOORD_0" : 2
                    },
                    "indices" : 3,
                    "material" : 0
                },
                {
                    "attributes" : {
                        "POSITION" : 4,
                        "NORMAL" : 5,
                        "TEXCOORD_0" : 6
                    },
                    "indices" : 7,
                    "material" : 1
                }
            ]
        },
        {
            "name" : "default",
            "primitives" : [
                {
                    "attributes" : {
                        "POSITION" : 8,
                        "NORMAL" : 9,
                        "TEXCOORD_0" : 10
                    },
                    "indices" : 11,
                    "material" : 2
                }
            ]
        },
        {
            "name" : "00_napred",
            "primitives" : [
                {
                    "attributes" : {
                        "POSITION" : 12,
                        "NORMAL" : 13,
                        "TEXCOORD_0" : 14
                    },
                    "indices" : 15,
                    "material" : 3
                },
                {
                    "attributes" : {
                        "POSITION" : 16,
                        "NORMAL" : 17,
                        "TEXCOORD_0" : 18
                    },
                    "indices" : 19,
                    "material" : 4
                }
            ]
        }
    ],
    "textures" : [
        {
            "sampler" : 0,
            "source" : 0
        },
        {
            "sampler" : 0,
            "source" : 0
        },
        {
            "sampler" : 0,
            "source" : 1
        },
        {
            "sampler" : 0,
            "source" : 1
        }
    ],
    "images" : [
        {
            "bufferView" : 4,
            "mimeType" : "image/jpeg",
            "name" : "\u043d\u043e\u0432\u043e\u0435-\u0434\u0435\u0440\u0435\u0432\u043e_92"
        },
        {
            "bufferView" : 17,
            "mimeType" : "image/jpeg",
            "name" : "\u043d\u043e\u0432\u043e\u0435-\u0434\u0435\u0440\u0435\u0432\u043e_99"
        }
    ],
    "accessors" : [
        {
            "bufferView" : 0,
            "componentType" : 5126,
            "count" : 4220,
            "max" : [
                1.0200004577636719,
                0.22500000894069672,
                0.2040000557899475
            ],
            "min" : [
                -1.0199999809265137,
                -0.22499999403953552,
                -0.2040000557899475
            ],
            "type" : "VEC3"
        },
        {
            "bufferView" : 1,
            "componentType" : 5126,
            "count" : 4220,
            "type" : "VEC3"
        },
        {
            "bufferView" : 2,
            "componentType" : 5126,
            "count" : 4220,
            "type" : "VEC2"
        },
        {
            "bufferView" : 3,
            "componentType" : 5123,
            "count" : 6198,
            "type" : "SCALAR"
        },
        {
            "bufferView" : 5,
            "componentType" : 5126,
            "count" : 4,
            "max" : [
                1.01900053024292,
                0.12400001287460327,
                0.18599992990493774
            ],
            "min" : [
                0.8310003280639648,
                -0.12399998307228088,
                0.18599992990493774
            ],
            "type" : "VEC3"
        },
        {
            "bufferView" : 6,
            "componentType" : 5126,
            "count" : 4,
            "type" : "VEC3"
        },
        {
            "bufferView" : 7,
            "componentType" : 5126,
            "count" : 4,
            "type" : "VEC2"
        },
        {
            "bufferView" : 8,
            "componentType" : 5123,
            "count" : 6,
            "type" : "SCALAR"
        },
        {
            "bufferView" : 9,
            "componentType" : 5126,
            "count" : 24,
            "max" : [
                0.6652380228042603,
                0.21642376482486725,
                0.19674167037010193
            ],
            "min" : [
                0.6632380485534668,
                0.2144237607717514,
                0.19474166631698608
            ],
            "type" : "VEC3"
        },
        {
            "bufferView" : 10,
            "componentType" : 5126,
            "count" : 24,
            "type" : "VEC3"
        },
        {
            "bufferView" : 11,
            "componentType" : 5126,
            "count" : 24,
            "type" : "VEC2"
        },
        {
            "bufferView" : 12,
            "componentType" : 5123,
            "count" : 36,
            "type" : "SCALAR"
        },
        {
            "bufferView" : 13,
            "componentType" : 5126,
            "count" : 3068,
            "max" : [
                0.6907190084457397,
                0.25661030411720276,
                0.35863274335861206
            ],
            "min" : [
                -0.6592810153961182,
                -0.4465736150741577,
                -0.43136730790138245
            ],
            "type" : "VEC3"
        },
        {
            "bufferView" : 14,
            "componentType" : 5126,
            "count" : 3068,
            "type" : "VEC3"
        },
        {
            "bufferView" : 15,
            "componentType" : 5126,
            "count" : 3068,
            "type" : "VEC2"
        },
        {
            "bufferView" : 16,
            "componentType" : 5123,
            "count" : 4506,
            "type" : "SCALAR"
        },
        {
            "bufferView" : 18,
            "componentType" : 5126,
            "count" : 388,
            "max" : [
                0.689719021320343,
                0.25561028718948364,
                -0.23136714100837708
            ],
            "min" : [
                -0.629436194896698,
                -0.19614624977111816,
                -0.36136728525161743
            ],
            "type" : "VEC3"
        },
        {
            "bufferView" : 19,
            "componentType" : 5126,
            "count" : 388,
            "type" : "VEC3"
        },
        {
            "bufferView" : 20,
            "componentType" : 5126,
            "count" : 388,
            "type" : "VEC2"
        },
        {
            "bufferView" : 21,
            "componentType" : 5123,
            "count" : 570,
            "type" : "SCALAR"
        }
    ],
    "bufferViews" : [
        {
            "buffer" : 0,
            "byteLength" : 50640,
            "byteOffset" : 0
        },
        {
            "buffer" : 0,
            "byteLength" : 50640,
            "byteOffset" : 50640
        },
        {
            "buffer" : 0,
            "byteLength" : 33760,
            "byteOffset" : 101280
        },
        {
            "buffer" : 0,
            "byteLength" : 12396,
            "byteOffset" : 135040
        },
        {
            "buffer" : 0,
            "byteLength" : 230555,
            "byteOffset" : 147436
        },
        {
            "buffer" : 0,
            "byteLength" : 48,
            "byteOffset" : 377992
        },
        {
            "buffer" : 0,
            "byteLength" : 48,
            "byteOffset" : 378040
        },
        {
            "buffer" : 0,
            "byteLength" : 32,
            "byteOffset" : 378088
        },
        {
            "buffer" : 0,
            "byteLength" : 12,
            "byteOffset" : 378120
        },
        {
            "buffer" : 0,
            "byteLength" : 288,
            "byteOffset" : 378132
        },
        {
            "buffer" : 0,
            "byteLength" : 288,
            "byteOffset" : 378420
        },
        {
            "buffer" : 0,
            "byteLength" : 192,
            "byteOffset" : 378708
        },
        {
            "buffer" : 0,
            "byteLength" : 72,
            "byteOffset" : 378900
        },
        {
            "buffer" : 0,
            "byteLength" : 36816,
            "byteOffset" : 378972
        },
        {
            "buffer" : 0,
            "byteLength" : 36816,
            "byteOffset" : 415788
        },
        {
            "buffer" : 0,
            "byteLength" : 24544,
            "byteOffset" : 452604
        },
        {
            "buffer" : 0,
            "byteLength" : 9012,
            "byteOffset" : 477148
        },
        {
            "buffer" : 0,
            "byteLength" : 100411,
            "byteOffset" : 486160
        },
        {
            "buffer" : 0,
            "byteLength" : 4656,
            "byteOffset" : 586572
        },
        {
            "buffer" : 0,
            "byteLength" : 4656,
            "byteOffset" : 591228
        },
        {
            "buffer" : 0,
            "byteLength" : 3104,
            "byteOffset" : 595884
        },
        {
            "buffer" : 0,
            "byteLength" : 1140,
            "byteOffset" : 598988
        }
    ],
    "samplers" : [
        {
            "magFilter" : 9729,
            "minFilter" : 9987
        }
    ],
    "buffers" : [
        {
            "byteLength" : 600128,
            "uri" : "data:application/octet-stream;base64,"
        }
    ]
}
